<?xml version="1.0" standalone="no"?>
<!DOCTYPE svg PUBLIC "-//W3C//DTD SVG 20010904//EN"
 "http://www.w3.org/TR/2001/REC-SVG-20010904/DTD/svg10.dtd">
<svg version="1.0" xmlns="http://www.w3.org/2000/svg"
 width="265.000000pt" height="265.000000pt" viewBox="0 0 265.000000 265.000000"
 preserveAspectRatio="xMidYMid meet">
<metadata>
Created by potrace 1.11, written by Peter Selinger 2001-2013
</metadata>
<g transform="translate(0.000000,265.000000) scale(0.100000,-0.100000)"
fill="#000000" stroke="none">
<path d="M1235 2632 c-116 -34 -184 -102 -223 -222 -41 -127 -45 -211 -17
-405 2 -11 6 -42 10 -70 3 -27 8 -61 10 -75 3 -14 7 -43 10 -65 4 -22 8 -48
11 -57 7 -22 14 -57 20 -93 3 -16 21 -93 40 -170 20 -77 37 -148 39 -158 2
-10 7 -27 10 -37 3 -10 7 -27 9 -37 2 -10 10 -38 17 -63 7 -25 14 -54 16 -65
21 -120 72 -195 132 -195 36 0 51 9 91 57 8 10 14 18 12 18 -2 0 1 12 7 28 6
15 13 38 15 50 3 12 20 78 39 147 30 108 41 148 53 195 5 20 66 291 69 305 1
8 6 33 10 55 11 63 13 73 31 205 7 53 17 207 17 255 -1 131 -39 237 -110 313
-77 80 -209 115 -318 84z"/>
<path d="M1242 571 c-155 -46 -232 -209 -182 -386 27 -96 152 -185 260 -185
124 0 247 96 269 210 6 35 5 139 -2 173 -10 50 -56 115 -100 145 -56 38 -84
48 -137 51 -25 2 -47 4 -50 5 -3 2 -29 -4 -58 -13z"/>
</g>
</svg>
