<?xml version="1.0" standalone="no"?>
<!DOCTYPE svg PUBLIC "-//W3C//DTD SVG 20010904//EN"
 "http://www.w3.org/TR/2001/REC-SVG-20010904/DTD/svg10.dtd">
<svg version="1.0" xmlns="http://www.w3.org/2000/svg"
 width="342.000000pt" height="342.000000pt" viewBox="0 0 342.000000 342.000000"
 preserveAspectRatio="xMidYMid meet">
<metadata>
Created by potrace 1.11, written by Peter Selinger 2001-2013
</metadata>
<g transform="translate(0.000000,342.000000) scale(0.100000,-0.100000)"
fill="#000000" stroke="none">
<path d="M2295 3395 c-139 -56 -596 -235 -600 -235 -3 0 -24 -9 -48 -19 -44
-20 -294 -119 -627 -247 -107 -42 -213 -86 -236 -99 -58 -34 -113 -92 -138
-145 -12 -25 -41 -72 -67 -105 -119 -157 -167 -302 -167 -510 0 -196 26 -332
139 -713 95 -322 122 -453 121 -605 0 -54 -8 -133 -17 -167 -1 -3 -5 -20 -9
-39 -11 -45 -57 -147 -91 -201 l-27 -43 24 6 c12 3 33 8 45 12 18 6 21 4 18
-11 -2 -11 -9 -37 -14 -59 l-10 -40 41 45 c71 80 121 203 135 339 12 108 6
309 -12 402 -3 13 -7 41 -11 63 -3 22 -7 43 -9 46 -2 3 -6 21 -9 40 -8 46 -34
142 -86 315 -94 310 -115 424 -115 615 1 133 14 196 62 299 26 55 38 70 44 59
7 -12 122 -403 134 -457 3 -9 65 -236 140 -506 74 -269 137 -499 139 -510 7
-31 145 -547 154 -575 4 -14 26 -98 47 -186 l40 -162 359 4 c652 6 1095 20
1237 39 139 18 153 73 83 346 -24 96 -46 183 -48 194 -2 11 -27 112 -56 225
-28 113 -53 212 -55 221 -2 8 -26 107 -54 218 -28 112 -53 213 -55 225 -2 11
-7 28 -10 36 -3 8 -8 26 -10 40 -3 14 -28 115 -56 225 -28 109 -52 208 -54
220 -9 47 -138 554 -152 596 -8 25 -25 55 -37 67 -29 28 -90 40 -152 30 -27
-4 -72 -10 -100 -13 -27 -4 -61 -8 -75 -10 -73 -10 -109 -15 -150 -20 -25 -3
-56 -8 -70 -10 -14 -2 -45 -7 -70 -10 -25 -3 -76 -10 -115 -15 -38 -5 -90 -12
-115 -15 -25 -3 -56 -8 -70 -10 -14 -2 -54 -7 -90 -10 -36 -3 -78 -8 -95 -10
-16 -2 -59 -6 -95 -10 -36 -3 -81 -8 -100 -11 -19 -3 -60 -7 -90 -10 -30 -2
-66 -6 -80 -9 -14 -2 -56 -7 -95 -11 -38 -3 -73 -8 -77 -10 -4 -2 -9 0 -13 5
-6 11 59 58 147 105 34 18 63 37 65 42 5 14 -53 36 -98 37 -21 1 -39 3 -39 6
0 15 241 106 715 271 61 21 241 87 400 148 347 131 466 169 496 156 19 -9 19
-11 -13 -46 -49 -55 -281 -162 -598 -276 -231 -83 -391 -143 -422 -158 -40
-18 -42 -35 -5 -29 12 2 42 6 67 9 54 7 100 15 120 21 8 3 32 7 54 11 21 3 48
8 60 10 125 28 243 41 376 43 228 3 267 8 332 39 l57 28 10 -25 c14 -37 67
-237 170 -642 50 -196 95 -368 100 -382 6 -15 9 -27 6 -27 -2 0 2 -19 11 -41
8 -23 16 -51 18 -63 2 -12 14 -55 26 -96 11 -41 23 -82 25 -90 1 -8 9 -35 16
-60 7 -25 13 -49 14 -55 2 -5 12 -45 24 -88 13 -43 24 -86 26 -95 22 -97 79
-289 88 -294 32 -20 48 124 26 233 -6 30 -13 68 -16 84 -3 17 -11 48 -18 70
-11 31 -65 237 -80 300 -1 6 -5 21 -8 35 -4 14 -9 36 -11 50 -4 20 -95 412
-191 815 -8 33 -30 130 -50 215 -80 339 -134 556 -144 582 -26 68 -88 83 -186
43z"/>
</g>
</svg>
