<?xml version="1.0" standalone="no"?>
<!DOCTYPE svg PUBLIC "-//W3C//DTD SVG 20010904//EN"
 "http://www.w3.org/TR/2001/REC-SVG-20010904/DTD/svg10.dtd">
<svg version="1.0" xmlns="http://www.w3.org/2000/svg"
 width="270.000000pt" height="270.000000pt" viewBox="0 0 270.000000 270.000000"
 preserveAspectRatio="xMidYMid meet">
<metadata>
Created by potrace 1.11, written by Peter Selinger 2001-2013
</metadata>
<g transform="translate(0.000000,270.000000) scale(0.100000,-0.100000)"
fill="#000000" stroke="none">
<path d="M1305 2635 c-30 -30 -55 -61 -55 -69 0 -8 -5 -18 -10 -21 -8 -5 -8
-11 -1 -19 6 -7 12 -21 14 -32 1 -10 6 -24 10 -31 5 -8 -13 -13 -60 -18 -109
-12 -280 -59 -393 -109 -91 -41 -208 -108 -247 -141 -6 -5 -24 -19 -39 -30
-39 -28 -133 -124 -180 -181 -21 -27 -41 -51 -45 -54 -12 -11 -69 -106 -68
-114 0 -5 -3 -12 -8 -15 -14 -10 -55 -91 -46 -91 4 0 3 -4 -3 -8 -15 -10 -41
-81 -70 -191 -34 -131 -42 -327 -20 -463 17 -103 70 -283 86 -293 6 -3 10 -13
10 -21 0 -17 78 -155 95 -166 5 -4 6 -8 1 -8 -6 0 -1 -7 10 -15 10 -8 15 -15
9 -15 -5 0 4 -9 20 -21 l30 -20 -27 3 c-27 3 -76 -31 -59 -41 5 -4 11 -18 13
-31 2 -14 6 -29 9 -35 4 -5 7 -29 8 -52 1 -50 17 -127 33 -157 15 -30 60 -76
73 -76 6 0 12 20 14 47 1 26 7 50 12 54 6 3 10 9 8 13 -4 12 24 76 33 76 4 0
8 7 8 15 0 8 3 15 6 15 8 0 48 -22 54 -30 3 -4 41 -32 85 -62 104 -72 261
-143 400 -179 308 -80 599 -54 890 78 92 42 246 136 253 155 2 4 9 8 15 8 16
0 230 222 232 240 0 3 10 19 23 35 12 17 22 34 21 38 0 5 8 15 18 23 10 7 14
14 10 14 -5 0 -1 7 7 16 9 8 14 20 11 25 -4 5 -2 9 3 9 11 0 63 126 86 205 94
324 41 700 -137 969 -22 33 -44 63 -49 64 -4 2 -8 7 -8 12 0 16 -168 200 -182
200 -5 0 -19 11 -31 23 -12 13 -26 26 -32 28 -5 2 -48 30 -95 61 -141 93 -448
203 -471 167 -7 -12 -9 -12 -9 0 0 8 7 19 16 25 14 10 13 14 -4 36 -11 14 -22
41 -25 60 -8 55 -33 112 -57 132 -16 13 -39 18 -81 18 -58 0 -60 -1 -114 -55z"/>
</g>
</svg>
