<?xml version="1.0" standalone="no"?>
<!DOCTYPE svg PUBLIC "-//W3C//DTD SVG 20010904//EN"
 "http://www.w3.org/TR/2001/REC-SVG-20010904/DTD/svg10.dtd">
<svg version="1.0" xmlns="http://www.w3.org/2000/svg"
 width="500.000000pt" height="500.000000pt" viewBox="0 0 500.000000 500.000000"
 preserveAspectRatio="xMidYMid meet">
<metadata>
Created by potrace 1.11, written by Peter Selinger 2001-2013
</metadata>
<g transform="translate(0.000000,500.000000) scale(0.100000,-0.100000)"
fill="#000000" stroke="none">
<path d="M2130 4067 c-3 -3 -39 -8 -80 -12 -41 -3 -82 -8 -90 -10 -8 -3 -35
-7 -60 -11 -25 -3 -54 -7 -65 -9 -170 -24 -490 -114 -680 -192 -629 -256
-1021 -646 -1131 -1128 -7 -30 -17 -144 -17 -195 0 -52 12 -191 18 -200 2 -4
7 -21 10 -39 18 -105 106 -293 193 -415 65 -90 206 -238 301 -315 289 -236
677 -410 1156 -521 296 -69 729 -100 1080 -77 61 4 121 10 135 12 14 3 52 7
85 10 33 3 85 10 115 15 30 5 69 12 85 15 17 2 41 7 55 10 14 3 39 8 55 11 17
2 48 10 70 15 22 6 47 12 55 14 77 15 271 76 385 120 902 352 1349 1009 1135
1666 -71 217 -202 407 -406 589 -28 25 -59 52 -70 60 -10 8 -37 29 -59 46
-120 94 -379 236 -570 312 -87 35 -311 110 -347 116 -7 1 -22 5 -33 9 -11 3
-31 9 -45 11 -14 3 -47 11 -75 16 -27 6 -61 13 -75 16 -14 2 -45 9 -70 14 -47
10 -79 15 -170 25 -30 4 -66 10 -80 13 -30 7 -803 15 -810 9z m700 -212 c30
-4 58 -10 62 -13 7 -7 73 -262 83 -322 3 -19 8 -42 10 -50 2 -8 7 -31 10 -50
3 -19 8 -42 10 -50 2 -8 7 -40 10 -70 3 -30 8 -62 10 -70 2 -8 7 -40 10 -70 3
-30 8 -71 11 -91 l5 -36 -38 2 c-95 5 -125 -23 -207 -189 -62 -126 -63 -144
-27 -273 16 -60 33 -125 37 -146 10 -60 61 -82 112 -49 8 6 14 37 17 84 2 41
10 91 19 111 12 29 13 44 5 65 -17 44 -22 115 -10 159 11 42 70 103 98 103 7
0 13 9 13 19 0 28 9 31 107 37 48 3 91 8 95 10 3 2 5 18 3 34 -2 17 1 30 7 30
10 0 8 37 -7 150 -3 19 -7 55 -10 80 -7 59 -21 142 -45 265 -11 55 -22 109
-24 120 -2 11 -11 48 -20 81 -9 34 -16 67 -16 73 0 13 4 12 140 -19 52 -12
102 -23 110 -25 27 -5 224 -66 245 -75 11 -4 65 -26 120 -48 l100 -40 3 -636
2 -636 -59 30 c-70 35 -75 31 -77 -50 -1 -70 -27 -126 -75 -159 -27 -19 -40
-37 -48 -68 -12 -44 -50 -96 -85 -115 -11 -6 -40 -16 -64 -22 l-44 -11 106
-75 c58 -41 160 -113 226 -160 l120 -84 0 -88 0 -89 -62 -28 c-109 -51 -411
-148 -516 -167 -14 -3 -57 -12 -95 -20 -39 -8 -72 -12 -75 -10 -2 3 3 38 12
78 24 102 74 337 80 373 3 17 8 50 11 75 4 24 8 47 10 50 2 3 6 34 10 70 l6
65 -83 1 c-46 1 -100 4 -120 7 -31 4 -38 2 -39 -12 0 -9 -2 -25 -4 -36 -2 -11
-7 -40 -10 -65 -19 -140 -127 -626 -143 -642 -23 -22 -643 -25 -712 -3 -9 3
-22 22 -29 43 -32 100 -81 264 -85 284 -3 13 -12 52 -21 88 -17 66 -19 77 -32
140 -9 42 -6 29 -22 126 l-14 80 -41 -6 c-23 -3 -76 -5 -119 -5 l-78 0 5 -52
c12 -119 86 -443 137 -597 10 -33 18 -61 16 -62 -5 -5 -241 45 -312 67 -38 12
-78 23 -87 24 -25 5 -217 75 -258 94 l-35 16 0 110 0 109 206 146 c114 80 205
148 203 151 -2 3 -16 6 -31 7 -78 2 -152 61 -178 140 -10 28 -20 52 -24 52
-16 0 -73 63 -86 95 -8 19 -15 59 -15 88 0 30 -3 56 -6 60 -4 3 -17 -1 -30 -9
-13 -9 -27 -13 -31 -11 -6 4 -10 1243 -4 1267 4 17 311 122 451 155 85 20 231
47 235 44 2 -3 -5 -34 -16 -69 -21 -68 -74 -276 -83 -323 -2 -15 -7 -35 -10
-45 -3 -9 -7 -33 -10 -52 -3 -19 -8 -46 -11 -60 -29 -142 -39 -230 -25 -230 6
0 11 -10 10 -22 -5 -53 -4 -53 78 -54 92 0 133 -9 126 -27 -2 -7 16 -27 41
-45 28 -20 52 -47 62 -70 19 -45 18 -120 0 -165 -13 -29 -12 -38 4 -77 11 -28
18 -72 18 -116 1 -65 3 -72 25 -82 28 -13 77 -6 88 11 6 10 20 67 34 132 1 6
10 33 19 60 11 28 19 78 19 115 0 59 -5 74 -56 175 -75 148 -106 174 -195 170
-24 -2 -43 -2 -43 -1 0 13 54 295 70 366 28 123 28 125 30 125 1 0 3 7 5 15 1
8 9 35 16 60 7 25 13 47 14 50 39 138 56 189 67 197 6 3 40 8 77 10 36 3 67 6
69 8 6 5 487 -3 542 -10z m-1898 -1011 c-1 -351 -3 -638 -4 -638 -2 -1 -116
-59 -255 -129 l-252 -127 -41 60 c-65 96 -112 206 -147 341 -3 13 -7 78 -9
144 -2 100 2 136 21 213 55 213 193 414 410 595 69 59 266 189 273 182 3 -3 5
-291 4 -641z m3284 555 c39 -26 78 -54 85 -61 8 -7 30 -25 49 -40 201 -154
366 -403 416 -629 3 -13 8 -69 11 -124 10 -192 -52 -392 -177 -564 -15 -20
-16 -20 -135 41 -66 34 -169 86 -230 117 l-110 56 -1 632 c-1 456 2 630 10
626 6 -4 43 -28 82 -54z"/>
<path d="M1531 2935 c-86 -19 -149 -41 -189 -65 -62 -38 -88 -145 -46 -191 17
-19 16 -20 -10 -48 -54 -56 -41 -170 25 -226 17 -13 28 -29 24 -35 -11 -18 -7
-107 6 -131 14 -28 49 -58 66 -59 14 0 33 -32 33 -55 0 -32 33 -86 61 -101 41
-21 123 -29 284 -28 151 1 205 12 230 47 17 24 20 78 5 93 -6 6 -74 9 -173 8
-164 -2 -237 2 -237 15 0 4 44 8 98 10 321 10 304 7 320 49 21 55 21 68 2 100
l-20 32 -202 -4 c-198 -4 -268 -1 -268 13 0 4 19 7 43 7 156 2 379 15 401 24
43 16 51 57 25 137 -20 61 -41 67 -264 68 -136 0 -206 4 -220 12 -17 11 -9 13
50 13 39 1 136 2 216 4 117 1 151 5 172 18 48 32 60 135 21 180 -41 45 -121
58 -362 58 -2 0 0 6 5 13 5 6 9 21 9 32 -1 26 -23 28 -105 10z"/>
<path d="M3359 2947 c-7 -18 -3 -50 8 -54 34 -13 3 -18 -120 -18 -189 0 -257
-29 -262 -112 -3 -56 12 -99 42 -118 27 -18 99 -23 387 -25 56 0 68 -3 58 -12
-10 -10 -69 -13 -220 -14 -223 0 -239 -4 -262 -53 -31 -65 -24 -131 15 -149
23 -11 201 -22 387 -26 45 0 64 -4 57 -11 -6 -6 -99 -10 -239 -10 -217 0 -230
-1 -244 -20 -24 -31 -20 -89 7 -121 26 -29 11 -28 315 -34 77 -2 101 -5 92
-14 -7 -7 -75 -11 -206 -11 -212 -1 -218 -2 -210 -56 11 -76 54 -92 251 -93
266 -1 318 19 339 134 5 27 15 41 46 60 53 33 67 62 63 135 -3 54 0 62 26 90
38 38 51 74 51 134 0 39 -5 54 -29 78 l-29 31 19 28 c35 54 16 132 -42 176
-31 23 -118 56 -194 73 -33 7 -104 16 -106 12z"/>
</g>
</svg>
