<?xml version="1.0" standalone="no"?>
<!DOCTYPE svg PUBLIC "-//W3C//DTD SVG 20010904//EN"
 "http://www.w3.org/TR/2001/REC-SVG-20010904/DTD/svg10.dtd">
<svg version="1.0" xmlns="http://www.w3.org/2000/svg"
 width="440.000000pt" height="440.000000pt" viewBox="0 0 440.000000 440.000000"
 preserveAspectRatio="xMidYMid meet">
<metadata>
Created by potrace 1.11, written by Peter Selinger 2001-2013
</metadata>
<g transform="translate(0.000000,440.000000) scale(0.100000,-0.100000)"
fill="#000000" stroke="none">
<path d="M3233 4387 c2 -7 0 -20 -5 -30 -6 -12 -5 -24 4 -35 11 -15 10 -15 -8
1 -23 19 -40 12 -22 -10 8 -11 8 -17 -2 -26 -10 -10 -12 -9 -7 5 5 14 1 17
-16 14 -23 -3 -30 -26 -13 -38 6 -4 7 -10 3 -14 -3 -4 -15 -1 -24 7 -16 13
-17 12 -4 -3 7 -10 10 -18 6 -18 -4 0 -2 -6 4 -14 10 -11 8 -17 -6 -25 -10 -6
-13 -11 -6 -11 6 0 11 -9 10 -19 0 -11 -5 -17 -9 -15 -5 3 -6 9 -4 13 3 4 -1
8 -9 8 -12 0 -12 -5 1 -28 13 -26 12 -30 -8 -49 -17 -16 -18 -19 -5 -15 10 4
17 2 17 -4 0 -6 -7 -11 -15 -11 -8 0 -15 -5 -15 -11 0 -5 5 -7 11 -3 7 4 10 1
7 -7 -3 -8 -12 -13 -19 -11 -8 2 -6 -5 6 -19 15 -17 16 -21 4 -17 -10 4 -16 1
-16 -8 0 -8 6 -13 12 -10 8 3 10 -4 7 -20 -2 -13 -8 -24 -13 -24 -5 0 -6 8 -3
18 5 14 4 15 -5 2 -8 -11 -7 -18 5 -27 14 -10 13 -12 -3 -16 -16 -4 -16 -5 0
-6 9 0 17 -5 17 -11 0 -5 -6 -7 -14 -4 -8 3 -17 0 -22 -7 -4 -8 -3 -10 4 -5 7
4 12 1 12 -9 0 -9 -4 -13 -10 -10 -5 3 -10 1 -10 -4 0 -6 5 -11 10 -11 6 0 10
-5 10 -11 0 -5 -4 -8 -9 -5 -8 5 -16 -12 -26 -51 -2 -7 1 -13 7 -13 6 0 8 6 5
14 -3 8 2 20 11 27 14 11 15 11 5 -1 -9 -9 -9 -19 -2 -33 6 -11 7 -17 2 -14
-5 3 -15 2 -23 -4 -9 -5 -10 -9 -4 -9 17 0 25 -28 12 -36 -7 -4 -8 -3 -4 4 4
7 5 12 2 12 -3 0 -10 -9 -16 -20 -9 -16 -8 -18 5 -14 11 5 13 2 9 -10 -3 -9
-11 -13 -18 -9 -6 3 -8 3 -4 -2 4 -4 2 -15 -5 -24 -10 -14 -10 -14 4 -3 14 10
16 8 15 -17 -1 -18 -5 -27 -14 -24 -13 5 -7 -21 9 -43 5 -6 3 -11 -6 -11 -8 0
-12 3 -10 7 2 3 0 12 -5 20 -7 11 -9 6 -7 -15 2 -25 -1 -30 -18 -27 -16 2 -17
1 -5 -7 25 -17 4 -22 -26 -6 -16 8 -25 15 -21 15 4 0 3 9 -3 20 -9 16 -8 18 5
14 8 -3 13 -10 10 -14 -3 -5 -1 -11 4 -14 10 -6 10 12 0 29 -4 6 -5 20 -4 33
2 24 -10 30 -19 10 -2 -7 -4 -3 -2 10 1 13 7 27 12 30 12 9 16 32 5 32 -5 0
-12 -6 -14 -12 -4 -10 -6 -10 -6 0 -1 7 9 17 22 22 19 8 20 9 3 9 -11 1 -16 4
-13 8 4 3 3 11 -3 17 -5 7 -5 17 2 26 8 12 9 12 4 -2 -3 -10 -2 -18 3 -18 5 0
11 10 13 23 3 17 0 23 -15 24 -11 1 -30 12 -42 23 l-23 22 -7 -22 c-5 -17 -9
-19 -15 -9 -5 7 -6 17 -4 21 3 4 0 8 -5 8 -6 0 -11 -4 -11 -10 0 -5 -6 -10
-14 -10 -8 0 -17 -8 -19 -17 -4 -17 -5 -17 -6 0 -1 12 -5 15 -13 10 -17 -10
-59 -12 -52 -2 2 4 13 6 24 4 11 -2 20 0 20 4 0 5 -15 8 -34 7 -21 -1 -32 -5
-29 -13 3 -7 -3 -10 -14 -8 -10 2 -20 4 -23 4 -3 1 1 5 8 10 11 7 11 9 -1 14
-11 4 -14 -1 -12 -21 2 -24 2 -24 -10 -8 -8 10 -27 19 -44 20 -23 2 -28 -1
-20 -10 8 -9 5 -11 -10 -7 -11 3 -18 10 -17 16 2 7 1 9 -1 4 -3 -4 -9 -5 -14
-2 -5 4 -6 0 -4 -7 4 -10 -4 -14 -29 -14 -19 0 -33 4 -30 8 2 4 13 5 24 3 11
-2 20 0 20 4 0 5 -15 8 -34 7 -21 -1 -32 -5 -29 -13 3 -6 -2 -10 -11 -9 -19 3
-34 16 -17 16 7 0 9 5 5 11 -5 8 -10 6 -16 -5 -5 -9 -13 -14 -19 -11 -17 11
-50 14 -44 4 4 -5 10 -7 15 -4 4 3 14 -3 21 -13 12 -15 12 -16 -1 -6 -8 6 -23
10 -32 9 -10 -2 -18 3 -18 10 0 7 -7 16 -16 19 -8 3 -12 2 -9 -3 3 -5 0 -13
-7 -18 -17 -10 -78 -12 -72 -2 2 4 13 6 24 4 11 -2 20 0 20 4 0 5 -15 8 -34 7
-21 -1 -32 -5 -29 -13 3 -6 -2 -10 -11 -9 -19 3 -34 16 -17 16 7 0 9 5 5 11
-5 8 -10 6 -16 -5 -5 -9 -13 -14 -19 -11 -17 11 -50 14 -44 4 4 -5 10 -7 15
-4 4 3 14 -3 21 -13 12 -15 12 -16 -1 -6 -8 6 -23 10 -32 9 -10 -2 -18 3 -18
10 0 7 -7 16 -16 19 -8 3 -12 2 -9 -3 3 -5 0 -13 -7 -18 -17 -10 -78 -12 -72
-2 2 4 13 6 24 4 11 -2 20 0 20 4 0 5 -15 8 -34 7 -21 -1 -32 -5 -29 -13 3 -6
-2 -10 -11 -9 -19 3 -34 16 -17 16 7 0 9 5 5 11 -5 8 -10 6 -16 -5 -6 -11 -14
-14 -26 -7 -20 10 -42 4 -42 -11 0 -7 5 -6 14 1 10 9 17 7 27 -6 13 -16 12
-17 -3 -5 -12 10 -18 10 -24 1 -5 -9 -11 -7 -22 7 -11 15 -15 16 -19 5 -4 -10
-10 -8 -20 10 -8 13 -12 16 -9 7 6 -20 -9 -27 -49 -22 -16 1 -35 -2 -41 -7 -9
-7 -16 -5 -24 8 -9 14 -12 15 -17 4 -4 -10 -9 -8 -20 10 -8 13 -12 16 -9 7 6
-20 -9 -27 -49 -22 -16 1 -35 -2 -41 -7 -9 -7 -16 -5 -24 8 -9 14 -12 15 -17
4 -4 -10 -9 -8 -20 10 -8 13 -12 16 -9 7 6 -20 -9 -27 -49 -22 -16 1 -35 -2
-41 -7 -9 -7 -16 -5 -24 8 -9 14 -12 15 -17 4 -4 -10 -9 -8 -20 10 -8 13 -12
16 -9 7 3 -10 0 -19 -7 -19 -45 -5 -100 -3 -104 4 -2 4 1 7 7 7 6 0 8 5 4 11
-5 8 -10 6 -16 -5 -5 -9 -13 -14 -19 -11 -17 11 -50 14 -44 4 4 -5 10 -7 15
-4 4 3 14 -3 21 -13 12 -15 12 -16 -1 -6 -8 6 -23 10 -32 9 -10 -2 -18 3 -18
10 0 7 -7 16 -16 19 -8 3 -12 2 -9 -3 3 -5 0 -13 -7 -18 -17 -10 -78 -12 -72
-2 2 4 13 6 24 4 11 -2 20 0 20 4 0 5 -15 8 -34 7 -21 -1 -32 -5 -29 -13 3 -6
-2 -10 -11 -9 -19 3 -34 16 -17 16 7 0 9 5 5 11 -5 8 -10 6 -16 -5 -5 -9 -13
-14 -19 -11 -17 11 -50 14 -44 4 4 -5 10 -7 15 -4 4 3 14 -3 21 -13 12 -15 12
-16 -1 -6 -8 6 -23 10 -32 9 -10 -2 -18 3 -18 10 0 7 -7 16 -16 19 -8 3 -12 2
-9 -3 3 -5 0 -13 -7 -18 -17 -10 -78 -12 -72 -2 2 4 13 6 24 4 11 -2 20 0 20
4 0 5 -15 8 -34 7 -21 -1 -32 -5 -29 -13 3 -6 -2 -10 -11 -9 -19 3 -34 16 -17
16 7 0 9 5 5 11 -5 8 -10 6 -16 -5 -9 -16 -11 -16 -36 0 l-27 17 25 -29 c14
-16 17 -22 8 -15 -10 7 -18 10 -18 5 0 -5 -5 -2 -10 6 -6 10 -9 -655 -7 -1890
l2 -1905 267 -1 c194 -1 266 2 261 10 -3 6 0 5 8 -1 17 -17 43 -17 33 0 -6 9
-5 9 7 0 18 -14 1679 -15 1679 -1 0 5 6 6 13 2 7 -5 6 0 -3 11 -8 10 -15 19
-15 20 0 1 7 10 15 20 9 11 10 16 3 11 -8 -4 -13 -2 -13 4 0 6 -5 8 -12 4 -10
-6 -10 -4 -2 7 6 8 10 22 9 32 -2 9 1 15 6 11 5 -3 6 -10 3 -16 -4 -7 -2 -8 4
-4 14 8 4 36 -12 36 -7 0 -13 7 -13 15 0 11 4 12 14 3 11 -9 12 -7 7 7 -5 13
-4 16 4 11 8 -5 10 -2 5 9 -4 12 -8 13 -13 5 -5 -8 -9 -7 -13 5 -4 9 -3 13 3
10 6 -3 10 -1 10 5 0 6 4 8 10 5 6 -3 7 1 3 10 -5 14 -8 14 -15 3 -8 -10 -9
-9 -4 4 3 10 1 20 -5 24 -7 4 -7 10 0 18 7 9 7 16 -2 25 -10 11 -8 11 10 2 18
-9 21 -8 18 7 -2 9 -4 20 -4 25 -1 4 -6 7 -12 7 -8 0 -7 -6 2 -17 13 -17 12
-17 -4 -4 -18 14 -18 16 -1 28 10 7 14 13 10 13 -5 0 -3 6 3 13 11 14 5 27
-13 27 -6 0 -4 -5 4 -10 9 -6 10 -10 3 -10 -16 0 -26 17 -13 25 5 3 10 11 10
16 0 6 -5 7 -10 4 -6 -3 -10 -1 -10 4 0 6 7 11 16 11 8 0 12 4 9 10 -11 17
-14 51 -5 45 5 -3 11 -1 15 5 4 6 11 8 16 5 5 -4 9 0 9 7 0 8 3 9 8 3 4 -5 13
-11 21 -13 12 -3 12 0 1 13 -7 8 -10 18 -6 22 3 3 6 1 6 -5 0 -7 7 -12 16 -12
9 0 12 5 8 13 -4 6 2 3 14 -7 12 -11 23 -16 23 -13 1 4 2 13 3 20 0 6 7 12 14
12 6 0 12 5 13 10 0 6 6 16 12 24 14 16 18 43 6 35 -5 -3 -6 -10 -3 -16 4 -7
2 -8 -4 -4 -13 8 -5 36 12 36 6 1 0 7 -14 16 -21 12 -21 14 -4 9 13 -3 26 1
34 10 8 10 9 15 1 15 -6 0 -11 -5 -11 -12 0 -6 -3 -8 -6 -5 -10 10 17 38 29
30 6 -3 7 -1 3 6 -4 6 -12 9 -17 6 -5 -4 -9 -1 -9 4 0 6 7 11 15 11 8 0 15 4
15 10 0 5 -6 7 -13 4 -8 -3 -13 3 -13 15 0 14 4 17 12 11 17 -15 24 -1 13 28
-9 23 -8 24 8 11 12 -10 15 -10 9 -1 -4 7 -2 19 4 27 7 8 9 15 4 15 -5 0 -2 5
6 11 13 9 12 10 -2 5 -10 -3 -18 -1 -18 5 0 6 -5 7 -12 3 -7 -4 -8 -3 -4 4 4
6 14 8 24 5 9 -3 14 -2 9 2 -4 5 0 19 9 33 9 13 12 22 8 19 -5 -3 -16 2 -24
11 -13 14 -12 15 3 9 9 -3 17 -2 17 4 0 6 5 7 12 3 7 -4 8 -3 4 5 -4 6 -11 9
-16 6 -5 -3 -12 -1 -15 5 -4 6 -1 9 6 8 6 -2 14 3 17 11 2 8 0 11 -6 7 -11 -7
-11 12 1 32 5 7 3 12 -4 12 -7 0 -10 3 -6 6 3 3 11 3 17 -1 8 -5 8 -11 -1 -21
-8 -10 -8 -14 0 -14 6 0 11 3 12 8 0 4 2 15 4 25 2 9 0 17 -4 17 -14 0 -8 29
7 35 11 4 12 8 2 20 -7 8 -17 12 -24 8 -6 -4 -5 1 3 10 7 9 10 17 5 17 -4 0
-3 5 4 12 7 7 12 20 12 30 0 10 5 18 11 18 5 0 7 -5 3 -12 -5 -7 -3 -8 6 -3
10 6 10 11 -3 20 -21 15 -22 29 -1 21 9 -4 13 -2 8 5 -4 6 -1 15 6 19 8 5 7 9
-5 13 -10 5 -14 3 -9 -5 5 -7 3 -8 -6 -3 -10 6 -7 12 10 25 23 17 23 19 7 43
-12 19 -14 28 -5 33 6 4 8 3 5 -3 -3 -5 0 -10 7 -10 8 0 12 6 9 14 -3 7 -9 13
-14 13 -5 0 -9 5 -9 11 0 6 6 9 13 6 18 -7 15 82 -4 94 -12 7 -11 9 2 9 20 0
42 -24 31 -35 -4 -5 -1 -5 6 -1 11 6 10 12 -4 27 -13 14 -14 22 -5 33 6 7 8
22 4 31 -5 14 -3 16 7 10 8 -5 11 -4 6 3 -4 6 -13 9 -20 6 -7 -3 -19 3 -27 13
-13 17 -13 17 5 3 18 -14 19 -13 13 3 -6 15 -3 17 16 12 22 -7 22 -7 2 8 -11
8 -24 13 -30 9 -5 -3 -5 1 1 9 6 8 10 22 8 32 -1 12 2 17 11 13 10 -3 12 0 8
11 -5 12 -3 14 7 8 8 -5 11 -4 6 3 -4 6 -12 9 -20 6 -8 -3 -12 5 -12 26 0 22
4 29 13 25 9 -3 11 0 7 6 -4 6 0 16 7 21 10 6 7 7 -10 3 -15 -5 -21 -3 -17 3
3 6 0 13 -6 16 -7 3 -2 3 11 0 18 -5 22 -3 15 7 -15 25 -14 46 2 25 8 -11 14
-16 14 -11 0 5 -7 16 -15 25 -21 23 -28 61 -10 54 7 -3 16 0 21 7 4 7 3 10 -3
6 -6 -4 -13 2 -16 13 -5 21 8 37 16 20 3 -6 4 -5 3 2 -2 7 -12 11 -22 10 -15
-3 -17 -1 -6 9 16 17 16 32 0 23 -10 -6 -10 -4 0 7 13 15 17 63 3 55 -4 -3 -6
9 -4 27 3 17 5 40 5 50 -1 10 4 15 11 11 7 -3 -1 5 -17 18 -20 17 -25 27 -18
32 13 8 16 49 5 60 -4 4 -8 21 -9 37 -1 23 2 29 14 24 11 -4 12 -2 5 7 -5 7
-8 23 -7 36 1 14 -4 22 -15 22 -14 0 -14 2 -1 10 8 5 11 10 5 10 -5 0 -3 5 5
10 12 8 12 10 1 10 -9 0 -12 9 -9 29 3 22 1 28 -11 23 -10 -4 -12 -2 -6 9 14
21 13 49 -1 47 -7 -2 -13 2 -13 7 -1 6 4 10 11 10 6 0 12 8 14 18 1 9 -2 17
-8 17 -6 0 -8 -7 -5 -14 4 -10 1 -13 -9 -9 -11 4 -12 9 -3 19 6 8 8 14 4 14
-4 0 -1 8 6 17 8 10 9 14 2 10 -6 -4 -15 -3 -18 3 -4 6 -3 10 2 9 20 -4 24 2
12 18 -10 11 -10 14 -1 9 7 -4 12 -2 12 4 0 6 5 8 12 4 7 -4 8 -3 4 5 -4 6
-11 9 -16 6 -5 -3 -12 0 -16 6 -4 8 -3 9 4 5 7 -4 12 -2 12 4 0 6 5 8 13 3 6
-4 4 4 -5 19 -17 25 -15 38 6 38 6 0 4 -5 -4 -11 -13 -9 -13 -10 0 -6 8 2 14
12 12 22 -2 12 1 15 10 9 11 -6 11 -5 0 8 -11 14 -10 18 4 26 15 8 15 9 0 15
-10 4 -15 3 -11 -3 3 -6 1 -10 -5 -10 -7 0 -10 6 -7 13 2 6 10 11 16 10 6 -2
11 4 11 12 0 9 6 12 18 9 14 -5 14 -4 2 4 -9 7 -18 8 -26 1 -9 -8 -11 -5 -7
10 3 12 8 19 12 17 4 -3 13 5 20 17 11 18 11 20 0 10 -17 -17 -26 -16 -26 2 0
8 4 12 8 10 3 -3 9 5 13 18 7 29 7 27 -1 25 -5 -2 -7 -6 -6 -10 2 -5 -2 -8 -7
-8 -13 0 -13 17 1 26 6 3 9 14 6 24 -3 13 0 17 9 13 8 -3 14 0 14 6 0 6 -4 11
-10 11 -5 0 -10 5 -10 11 0 5 5 7 10 4 6 -3 10 -1 10 5 0 6 5 8 12 4 7 -5 8
-3 2 7 -12 20 -14 38 -3 45 12 7 12 24 -1 24 -5 0 -9 -4 -7 -9 1 -5 -1 -9 -5
-10 -18 -2 -9 15 13 26 17 9 19 13 7 13 -9 0 -20 5 -24 12 -4 7 -3 8 4 4 7 -4
13 -4 13 1 6 38 5 60 -3 71 -6 6 -7 12 -3 12 4 0 14 -8 22 -17 8 -10 12 -12 8
-5 -3 6 0 12 7 12 10 0 10 2 -1 9 -18 12 -23 39 -9 48 7 3 8 1 4 -5 -5 -8 -1
-10 10 -5 14 5 13 8 -7 19 -21 12 -15 19 13 15 3 0 5 6 4 15 -2 14 -16 18 -26
7 -3 -4 1 -3 9 2 10 6 12 4 7 -4 -10 -15 -19 -7 -21 18 -1 11 4 17 11 14 6 -2
15 1 20 8 4 7 3 10 -4 5 -6 -3 -14 -1 -18 5 -4 8 -3 9 4 5 7 -4 12 -2 12 5 0
7 8 5 21 -7 14 -13 19 -14 17 -4 -2 8 6 15 17 17 15 2 16 1 5 -5 -9 -4 -15
-13 -14 -19 1 -7 2 -18 3 -24 0 -5 6 -7 11 -4 6 3 11 1 11 -4 2 -12 5 -26 9
-38 1 -5 2 -12 1 -16 -1 -5 3 -6 8 -2 6 3 8 12 4 20 -3 8 0 15 7 15 6 0 9 -3
6 -8 -2 -4 2 -18 10 -32 7 -14 13 -20 14 -13 0 13 18 12 39 -1 10 -6 12 -5 7
2 -4 7 -3 12 3 12 5 0 8 8 6 18 -1 9 2 27 6 40 5 13 5 22 -1 22 -6 0 -10 -5
-10 -12 0 -6 -3 -8 -7 -4 -5 4 -1 13 7 19 8 7 16 20 16 30 2 15 -1 16 -15 5
-14 -11 -14 -11 -4 3 7 9 10 18 7 21 -3 3 2 5 12 4 9 0 18 7 19 16 3 15 0 16
-18 6 -21 -11 -21 -10 -4 9 19 22 23 38 5 27 -7 -5 -8 -3 -4 5 5 7 14 10 20 8
7 -3 13 1 13 9 0 8 -6 13 -14 10 -23 -9 -14 3 15 19 18 11 20 14 7 10 -17 -4
-21 0 -21 19 0 14 4 22 8 20 4 -3 8 2 8 10 0 8 7 22 16 30 10 11 11 16 3 16
-7 0 -10 3 -6 6 3 3 2 17 -3 30 -6 15 -5 26 2 30 7 4 8 3 4 -4 -11 -18 0 -14
15 5 8 10 9 14 2 10 -15 -9 -14 35 2 45 6 5 6 8 -2 8 -7 0 -13 5 -13 11 0 5 5
7 10 4 6 -3 10 -1 10 4 0 6 -5 11 -11 11 -5 0 -7 5 -4 10 5 8 11 8 20 0 10 -8
15 -8 21 1 4 7 3 9 -3 6 -5 -3 -17 3 -27 14 -17 20 -17 21 2 15 16 -6 19 -2
17 26 -1 18 3 41 8 52 6 13 6 16 -2 12 -6 -4 -11 0 -11 8 0 8 6 14 13 12 6 -1
9 -1 5 1 -5 3 -8 11 -8 19 0 9 4 13 8 10 5 -3 9 1 9 9 0 8 -4 12 -8 10 -4 -3
-9 2 -12 10 -4 9 -1 12 9 8 7 -3 14 0 14 6 0 6 -4 11 -10 11 -5 0 -10 5 -10
11 0 6 6 9 14 6 15 -6 16 9 3 31 -5 7 -4 12 2 12 6 0 11 5 11 11 0 5 -5 7 -11
3 -8 -5 -8 -1 0 14 15 28 14 52 -2 52 -17 0 -57 46 -49 56 4 4 1 4 -6 0 -7 -4
-10 -11 -7 -16 3 -5 1 -11 -5 -15 -6 -3 -10 4 -11 17 0 20 -1 21 -8 4 -7 -17
-8 -17 -24 -2 -16 16 -17 16 -17 0 0 -17 -1 -17 -13 0 -13 17 -14 17 -30 1 -9
-9 -17 -12 -17 -6 0 5 7 16 15 25 14 13 13 15 -4 13 -11 0 -17 -6 -14 -12 4
-5 -3 -1 -15 9 -26 23 -26 23 -7 23 8 0 11 -5 8 -10 -3 -6 -1 -7 5 -3 6 4 9
13 6 21 -4 8 -10 12 -15 9 -5 -3 -6 2 -3 11 4 9 12 14 18 12 23 -9 14 34 -10
49 -28 19 -94 26 -94 10 0 -8 -3 -8 -8 0 -10 16 -155 16 -149 1z m221 -5 c3
-5 -1 -9 -9 -9 -8 0 -12 4 -9 9 3 4 7 8 9 8 2 0 6 -4 9 -8z m42 -30 c1 -7 0
-8 -3 -2 -2 5 -9 8 -14 4 -5 -3 -9 0 -9 6 0 15 23 7 26 -8z m-246 -12 c0 -5
-2 -10 -4 -10 -3 0 -8 5 -11 10 -3 6 -1 10 4 10 6 0 11 -4 11 -10z m283 -115
c-3 -9 -8 -14 -10 -11 -3 3 -2 9 2 15 9 16 15 13 8 -4z m-13 -80 c5 3 11 1 15
-5 4 -7 13 -6 27 1 18 10 19 8 13 -13 -3 -12 -3 -18 2 -12 14 20 41 13 35 -9
-3 -13 -1 -18 6 -13 7 4 9 -1 7 -16 -3 -12 -12 -26 -20 -31 -9 -4 -12 -13 -8
-20 13 -21 12 -37 -2 -37 -8 0 -17 -5 -21 -12 -4 -7 -3 -8 4 -4 7 4 12 3 12
-3 0 -5 -5 -13 -10 -16 -6 -4 -7 -11 -4 -17 4 -6 10 -5 16 3 8 11 9 11 5 -1
-2 -8 -9 -15 -15 -15 -5 0 -14 -3 -18 -7 -4 -5 -3 -8 3 -8 6 0 13 -6 16 -14 4
-10 0 -12 -16 -8 -19 5 -19 4 -6 -10 7 -9 19 -13 24 -10 6 3 0 -5 -12 -17 -23
-22 -31 -37 -14 -27 5 3 11 -1 15 -9 3 -8 1 -17 -5 -20 -5 -4 -6 -11 -3 -17 4
-7 2 -8 -4 -4 -7 4 -12 1 -12 -9 0 -10 5 -14 13 -9 10 6 10 4 0 -7 -7 -7 -13
-21 -13 -32 0 -10 -4 -15 -10 -12 -7 4 -7 -3 0 -20 5 -14 7 -24 2 -22 -4 3
-12 -1 -19 -8 -10 -10 -9 -14 2 -18 8 -4 11 -14 8 -26 -3 -12 -9 -19 -13 -16
-5 3 -12 0 -16 -6 -4 -7 -3 -9 3 -6 6 4 16 0 23 -8 11 -13 10 -14 -3 -10 -8 4
-18 1 -22 -5 -3 -6 -3 -10 2 -9 24 4 25 -4 3 -22 -14 -11 -19 -18 -12 -14 7 4
12 0 12 -9 0 -14 -31 -39 -41 -33 -2 1 -3 0 -2 -2 1 -2 -2 -13 -8 -23 -8 -15
-14 -17 -22 -9 -15 15 -32 14 -19 -1 7 -9 6 -17 -3 -25 -9 -8 -16 -9 -20 -3
-4 6 -10 8 -15 5 -5 -3 -8 4 -7 14 1 19 2 19 21 3 18 -16 19 -16 6 7 -10 19
-10 25 1 32 8 5 9 9 4 9 -6 0 -16 -5 -23 -12 -7 -7 -12 -9 -12 -5 0 3 10 15
21 26 13 12 19 26 16 35 -4 9 -1 16 5 16 6 0 3 10 -8 22 -10 12 -13 18 -5 13
11 -6 13 -3 8 14 -5 19 -3 20 9 10 21 -17 15 11 -6 29 -11 10 -11 12 -1 6 11
-5 13 -2 9 14 -4 12 -1 25 4 29 7 4 8 1 3 -7 -5 -9 -4 -11 3 -6 19 12 14 36
-5 30 -10 -3 -7 2 7 11 14 9 17 14 8 11 -10 -3 -20 0 -24 6 -5 7 -2 8 6 3 10
-6 12 -4 6 10 -5 15 -4 16 8 6 9 -8 16 -8 20 -2 4 5 -4 17 -16 26 -23 17 -23
17 -1 11 12 -4 24 -2 29 5 4 7 3 9 -2 6 -6 -3 -16 3 -22 14 -12 18 -11 19 7
10 17 -10 19 -8 16 9 -2 11 -7 26 -11 33 -5 7 0 6 11 -3 17 -14 18 -14 7 5 -8
16 -7 24 6 38 9 10 12 17 7 15 -6 -2 -11 1 -12 6 -1 5 -7 13 -15 18 -8 6 -5 7
12 2 23 -6 24 -6 10 11 -8 11 -10 16 -3 12 6 -4 15 -2 19 4 4 8 3 9 -4 5 -7
-4 -12 -2 -12 4 0 6 -5 8 -12 4 -7 -5 -8 -3 -2 7 5 8 9 17 9 21 0 3 3 10 7 14
4 3 5 -3 3 -15 -2 -12 0 -19 5 -16 10 6 5 42 -9 59 -8 9 -7 13 4 13 8 0 12 -4
9 -8 -2 -4 -1 -10 4 -13 16 -9 9 29 -7 42 -9 8 -10 11 -3 7 6 -3 12 -4 12 -1
0 2 3 12 7 22 4 11 3 15 -5 10 -6 -3 -14 -2 -17 4 -4 6 -1 9 7 8 8 -2 12 6 11
22 -1 15 0 18 3 7 3 -9 9 -15 14 -12z m50 21 c0 -2 -8 -10 -17 -17 -16 -13
-17 -12 -4 4 13 16 21 21 21 13z m88 -291 c-3 -3 -9 2 -12 12 -6 14 -5 15 5 6
7 -7 10 -15 7 -18z m-1004 -73 c3 -5 -1 -9 -9 -9 -8 0 -12 4 -9 9 3 4 7 8 9 8
2 0 6 -4 9 -8z m253 -7 c0 -8 -4 -12 -9 -9 -4 3 -8 9 -8 15 0 5 4 9 8 9 5 0 9
-7 9 -15z m648 -155 c3 -6 -1 -7 -9 -4 -18 7 -21 14 -7 14 6 0 13 -4 16 -10z
m-515 -110 c-13 -9 -13 -10 0 -10 8 0 3 -6 -12 -14 -15 -8 -35 -13 -45 -11
-10 2 -22 4 -28 4 -5 1 -3 5 5 11 9 6 19 5 29 -3 11 -9 17 -7 29 11 8 12 20
22 26 22 6 0 4 -5 -4 -10z m450 -70 c0 -5 -5 -10 -11 -10 -5 0 -7 5 -4 10 3 6
8 10 11 10 2 0 4 -4 4 -10z m63 -155 c-7 -21 -12 -19 -10 4 0 11 5 18 9 15 4
-3 5 -11 1 -19z m-23 -3 c0 -5 -7 -9 -15 -9 -8 0 -12 4 -9 9 3 4 9 8 15 8 5 0
9 -4 9 -8z m-203 -228 c0 -7 -6 -10 -14 -7 -7 3 -13 8 -13 12 0 4 6 8 13 8 8
0 14 -6 14 -13z m-57 -294 c0 -5 -2 -10 -4 -10 -3 0 -8 5 -11 10 -3 6 -1 10 4
10 6 0 11 -4 11 -10z m-5 -349 c3 -5 2 -12 -3 -15 -5 -3 -9 1 -9 9 0 17 3 19
12 6z m11 -80 c-4 -6 -13 -11 -19 -11 -8 0 -7 3 2 9 8 5 10 14 6 22 -6 11 -5
11 5 2 7 -6 9 -16 6 -22z m18 -209 c3 -5 -1 -9 -9 -9 -8 0 -12 4 -9 9 3 4 7 8
9 8 2 0 6 -4 9 -8z m6 -607 c-7 -8 -18 -15 -24 -15 -7 0 -6 3 2 9 7 4 12 12
11 17 -4 20 2 27 13 16 8 -8 8 -15 -2 -27z m-15 -55 c-3 -5 -12 -10 -18 -10
-7 0 -6 4 3 10 19 12 23 12 15 0z m-12 -145 c4 -8 1 -17 -6 -21 -7 -4 -9 -4
-5 1 4 4 3 14 -3 22 -7 8 -8 13 -1 13 5 0 12 -7 15 -15z m-78 -495 c-3 -5 -10
-10 -16 -10 -5 0 -9 5 -9 10 0 6 7 10 16 10 8 0 12 -4 9 -10z m-239 -807 c-2
-9 -9 -19 -17 -21 -11 -3 -11 -1 1 7 8 6 11 11 7 11 -5 0 -5 5 -2 10 9 15 14
12 11 -7z"/>
<path d="M3596 4068 c3 -5 10 -6 15 -3 13 9 11 12 -6 12 -8 0 -12 -4 -9 -9z"/>
<path d="M3550 3799 c0 -5 5 -7 10 -4 6 3 10 8 10 11 0 2 -4 4 -10 4 -5 0 -10
-5 -10 -11z"/>
<path d="M3435 3649 c-4 -6 -5 -12 -2 -15 2 -3 7 2 10 11 7 17 1 20 -8 4z"/>
<path d="M3410 3566 c0 -2 7 -7 16 -10 8 -3 12 -2 9 4 -6 10 -25 14 -25 6z"/>
<path d="M3663 4220 c2 -8 12 -16 23 -17 13 -2 15 -1 4 4 -8 3 -19 11 -23 17
-6 7 -7 6 -4 -4z"/>
<path d="M3109 4137 c6 -8 7 -18 3 -22 -4 -5 -1 -5 6 -1 10 6 10 11 1 22 -6 8
-14 14 -16 14 -3 0 0 -6 6 -13z"/>
<path d="M1306 3813 c-6 -14 -5 -15 5 -6 7 7 10 15 7 18 -3 3 -9 -2 -12 -12z"/>
<path d="M1466 3813 c-6 -14 -5 -15 5 -6 7 7 10 15 7 18 -3 3 -9 -2 -12 -12z"/>
<path d="M1626 3813 c-6 -14 -5 -15 5 -6 7 7 10 15 7 18 -3 3 -9 -2 -12 -12z"/>
<path d="M1786 3813 c-6 -14 -5 -15 5 -6 7 7 10 15 7 18 -3 3 -9 -2 -12 -12z"/>
<path d="M1330 3809 c0 -5 5 -7 10 -4 6 3 10 8 10 11 0 2 -4 4 -10 4 -5 0 -10
-5 -10 -11z"/>
<path d="M1430 3810 c-8 -5 -12 -12 -9 -15 4 -3 12 1 19 10 14 17 11 19 -10 5z"/>
<path d="M1490 3809 c0 -5 5 -7 10 -4 6 3 10 8 10 11 0 2 -4 4 -10 4 -5 0 -10
-5 -10 -11z"/>
<path d="M1590 3810 c-8 -5 -12 -12 -9 -15 4 -3 12 1 19 10 14 17 11 19 -10 5z"/>
<path d="M1650 3809 c0 -5 5 -7 10 -4 6 3 10 8 10 11 0 2 -4 4 -10 4 -5 0 -10
-5 -10 -11z"/>
<path d="M1750 3810 c-8 -5 -12 -12 -9 -15 4 -3 12 1 19 10 14 17 11 19 -10 5z"/>
<path d="M1810 3809 c0 -5 5 -7 10 -4 6 3 10 8 10 11 0 2 -4 4 -10 4 -5 0 -10
-5 -10 -11z"/>
<path d="M3605 3580 c-3 -5 -2 -10 4 -10 5 0 13 5 16 10 3 6 2 10 -4 10 -5 0
-13 -4 -16 -10z"/>
<path d="M3355 3200 c3 -5 8 -10 11 -10 2 0 4 5 4 10 0 6 -5 10 -11 10 -5 0
-7 -4 -4 -10z"/>
<path d="M3288 2273 c7 -3 16 -2 19 1 4 3 -2 6 -13 5 -11 0 -14 -3 -6 -6z"/>
<path d="M3286 2201 c-9 -14 26 -23 38 -11 8 8 6 9 -8 4 -13 -5 -17 -4 -12 4
4 7 3 12 -3 12 -5 0 -12 -4 -15 -9z"/>
<path d="M3300 1740 c0 -5 5 -10 11 -10 5 0 7 5 4 10 -3 6 -8 10 -11 10 -2 0
-4 -4 -4 -10z"/>
<path d="M3303 1655 c0 -7 6 -11 14 -8 7 3 13 6 13 8 0 2 -6 5 -13 8 -8 3 -14
-1 -14 -8z"/>
<path d="M3253 1178 c-11 -18 -13 -39 -3 -33 5 3 10 -1 12 -7 3 -7 5 2 5 20 0
35 -2 38 -14 20z"/>
<path d="M2965 491 c-3 -5 0 -13 6 -17 7 -4 9 -3 5 4 -3 5 0 13 6 15 9 4 10 6
1 6 -6 1 -14 -3 -18 -8z"/>
<path d="M2956 281 c-3 -5 1 -11 9 -14 9 -4 12 -1 8 9 -6 16 -10 17 -17 5z"/>
</g>
</svg>
