<?xml version="1.0" standalone="no"?>
<!DOCTYPE svg PUBLIC "-//W3C//DTD SVG 20010904//EN"
 "http://www.w3.org/TR/2001/REC-SVG-20010904/DTD/svg10.dtd">
<svg version="1.0" xmlns="http://www.w3.org/2000/svg"
 width="355.000000pt" height="355.000000pt" viewBox="0 0 355.000000 355.000000"
 preserveAspectRatio="xMidYMid meet">
<metadata>
Created by potrace 1.11, written by Peter Selinger 2001-2013
</metadata>
<g transform="translate(0.000000,355.000000) scale(0.100000,-0.100000)"
fill="#000000" stroke="none">
<path d="M1638 3545 c-1 -2 -28 -6 -58 -8 -30 -3 -66 -8 -80 -11 -14 -3 -36
-8 -50 -10 -128 -22 -289 -78 -447 -157 -79 -39 -143 -75 -143 -80 0 -5 -4 -9
-10 -9 -11 0 -134 -86 -182 -128 -179 -154 -300 -302 -419 -507 -31 -54 -115
-240 -124 -275 0 -3 -10 -36 -22 -75 -68 -221 -90 -509 -57 -745 66 -475 320
-905 698 -1182 28 -21 56 -41 61 -46 20 -16 180 -108 230 -131 64 -30 119 -53
125 -53 3 0 14 -5 25 -10 23 -13 206 -66 250 -73 16 -3 53 -10 80 -15 221 -41
535 -24 760 41 207 60 454 182 594 294 108 88 170 144 307 280 88 88 204 212
257 276 l97 117 0 163 -1 164 -20 -25 c-39 -49 -44 -55 -61 -81 -9 -14 -23
-32 -30 -40 -7 -8 -59 -75 -114 -150 -235 -314 -379 -456 -598 -589 -106 -64
-293 -147 -371 -164 -5 -2 -30 -8 -55 -15 -25 -7 -54 -15 -65 -17 -11 -2 -31
-6 -45 -9 -142 -32 -430 -36 -567 -9 -63 12 -83 16 -138 30 -77 19 -89 22 -92
24 -2 2 -6 3 -10 4 -23 5 -95 32 -143 53 -412 182 -718 497 -882 908 -18 45
-48 135 -54 160 -1 6 -9 37 -17 70 -28 104 -40 217 -41 355 0 131 9 225 29
330 3 14 7 34 9 45 7 36 45 165 51 175 3 5 8 20 10 32 3 13 36 86 74 163 153
307 407 567 695 714 32 17 63 34 70 39 19 15 250 97 298 106 13 2 43 9 68 15
231 52 482 16 659 -96 69 -44 163 -138 191 -192 26 -52 55 -55 75 -7 11 26 12
42 4 71 -51 182 -288 282 -670 283 -81 0 -149 -1 -151 -3z"/>
<path d="M1465 3298 c-68 -29 -229 -141 -254 -177 -12 -16 -21 -40 -21 -54 0
-14 -8 -33 -17 -43 -13 -12 -19 -38 -21 -90 l-4 -73 53 -58 c29 -32 67 -72 83
-90 16 -18 29 -44 30 -60 1 -24 10 -32 56 -56 57 -28 109 -78 162 -155 37 -54
52 -126 31 -144 -8 -7 -29 -32 -45 -57 -102 -151 -165 -222 -209 -236 -10 -4
-18 -14 -16 -23 5 -33 87 -129 154 -182 66 -52 406 -218 540 -264 1 -1 6 -34
17 -121 5 -37 10 -92 21 -255 3 -36 8 -108 12 -160 3 -52 6 -150 6 -217 -1
-68 2 -123 6 -123 3 1 33 7 66 16 33 8 68 17 78 19 10 2 27 7 37 10 10 3 27 7
37 9 10 2 63 16 118 30 54 14 108 26 120 26 15 0 17 2 6 9 -12 8 -88 14 -155
12 -23 0 -15 8 13 14 12 2 56 14 99 25 68 19 195 28 244 18 8 -2 12 5 11 17
-4 27 -13 84 -19 115 -18 93 -18 95 -28 230 -4 41 -8 89 -11 105 -3 26 -12
144 -19 268 -1 20 0 37 3 37 4 0 41 -35 83 -77 99 -101 170 -167 260 -241 71
-58 188 -138 188 -128 0 3 11 1 24 -4 38 -14 70 17 91 92 14 48 19 98 19 212
l0 148 -42 40 c-48 44 -48 54 -11 134 17 35 24 67 24 113 0 63 0 64 -46 105
-71 64 -153 104 -224 107 -71 4 -85 -3 -85 -42 0 -21 -7 -32 -24 -40 -13 -6
-29 -23 -35 -37 l-12 -25 -16 24 c-9 13 -29 40 -45 59 -16 19 -33 41 -39 48
-19 23 -113 171 -193 301 -99 162 -105 165 -216 121 -79 -32 -206 -69 -259
-76 -25 -3 -49 -8 -53 -10 -4 -2 -10 1 -14 7 -9 15 -105 59 -130 59 -13 0 -26
12 -37 35 -9 19 -13 35 -9 35 15 0 52 77 52 109 0 16 -6 50 -14 73 -12 36 -22
78 -32 133 -1 6 -3 12 -4 15 -1 3 -3 14 -4 25 -8 57 -21 87 -57 126 -21 24
-42 55 -46 69 -11 44 -42 95 -87 143 -40 44 -47 47 -92 47 -27 -1 -71 -10 -99
-22z m402 -815 c24 -56 41 -129 34 -141 -3 -5 -39 -9 -79 -9 -71 0 -72 1 -59
21 16 24 70 128 73 139 1 4 2 12 3 17 2 19 12 10 28 -27z m-239 -132 c9 -5 32
-15 50 -22 l33 -14 -47 -63 c-26 -35 -48 -61 -49 -60 -2 2 -6 32 -10 68 -3 36
-9 73 -11 83 -6 19 7 22 34 8z m276 -52 c5 -5 11 -52 21 -174 4 -38 8 -77 10
-85 3 -10 0 -8 -8 3 -109 165 -118 180 -120 223 l-3 45 48 -4 c26 -1 49 -5 52
-8z m-321 -61 c3 -31 9 -64 15 -73 8 -15 15 -11 50 34 23 28 45 51 49 50 19
-6 44 -50 48 -86 25 -221 27 -243 20 -243 -10 0 -151 99 -168 118 -10 11 -17
50 -22 112 -4 52 -8 104 -9 115 -2 19 3 40 9 33 1 -2 5 -28 8 -60z"/>
<path d="M795 2691 c-140 -52 -200 -130 -224 -291 -16 -99 -7 -167 26 -208 39
-48 119 -109 163 -124 55 -18 97 -50 114 -86 18 -38 21 -94 6 -123 -9 -16 -7
-21 12 -28 33 -12 157 -52 177 -56 38 -8 198 -72 273 -110 26 -13 50 -20 52
-16 16 24 -117 330 -151 350 -16 9 -16 11 -1 28 11 12 16 31 14 57 -4 46 8 96
25 107 9 5 4 17 -14 39 -15 17 -27 37 -28 43 0 7 -2 31 -4 55 -4 39 -2 42 20
42 29 0 35 18 31 85 -3 64 -14 85 -77 153 -64 70 -131 93 -216 74 -32 -7 -44
-6 -63 10 -27 22 -75 22 -135 -1z"/>
<path d="M836 1776 c-22 -30 -74 -82 -157 -159 -38 -34 -48 -57 -44 -100 5
-44 11 -70 30 -112 19 -43 102 -246 111 -270 9 -26 13 -44 18 -80 10 -72 19
-123 52 -280 2 -11 7 -35 10 -53 12 -64 88 -93 133 -51 50 47 181 281 181 324
0 14 22 25 49 25 27 0 59 41 81 103 22 62 22 185 1 225 -6 12 -9 22 -6 22 13
0 -82 168 -124 220 -70 87 -124 131 -219 179 -85 43 -88 43 -116 7z"/>
<path d="M1657 1543 c-3 -5 -7 -41 -8 -79 l-2 -71 81 -141 c45 -78 84 -153 88
-167 3 -14 10 -27 14 -30 10 -6 -4 59 -28 127 -11 29 -29 85 -42 123 -12 39
-28 84 -35 100 -43 104 -63 146 -68 138z"/>
</g>
</svg>
