<?xml version="1.0" standalone="no"?>
<!DOCTYPE svg PUBLIC "-//W3C//DTD SVG 20010904//EN"
 "http://www.w3.org/TR/2001/REC-SVG-20010904/DTD/svg10.dtd">
<svg version="1.0" xmlns="http://www.w3.org/2000/svg"
 width="354.000000pt" height="354.000000pt" viewBox="0 0 354.000000 354.000000"
 preserveAspectRatio="xMidYMid meet">
<metadata>
Created by potrace 1.11, written by Peter Selinger 2001-2013
</metadata>
<g transform="translate(0.000000,354.000000) scale(0.100000,-0.100000)"
fill="#000000" stroke="none">
<path d="M572 3039 c-74 -37 -122 -118 -122 -206 0 -41 43 -126 76 -152 113
-89 269 -58 330 66 74 149 -26 312 -191 313 -31 0 -66 -8 -93 -21z"/>
<path d="M513 2612 c-31 -5 -411 -223 -450 -258 -30 -27 -32 -34 -38 -114 -3
-47 -8 -105 -10 -130 -13 -136 -15 -245 -5 -270 22 -53 90 -72 148 -41 40 21
46 44 58 211 3 52 7 111 9 130 1 19 3 45 4 57 1 16 24 35 93 75 51 29 95 52
98 51 7 -4 7 -402 -1 -443 -3 -19 -23 -105 -44 -190 -20 -85 -45 -191 -55
-235 -11 -44 -37 -156 -60 -250 -42 -171 -44 -183 -41 -221 2 -34 44 -74 83
-81 27 -4 46 0 71 16 33 20 49 56 72 169 6 26 6 25 40 167 33 140 58 245 85
365 12 52 26 99 30 103 4 5 53 -15 107 -43 l100 -52 -3 -52 c-19 -292 -17
-307 44 -337 26 -13 41 -15 72 -7 67 17 76 43 85 248 4 80 8 163 10 185 2 22
-3 54 -11 71 -16 33 -23 38 -235 145 l-137 69 0 156 0 156 36 -34 c19 -18 45
-43 56 -56 23 -25 333 -142 376 -142 72 0 117 90 80 159 -14 27 -39 39 -187
91 l-123 43 -141 136 c-140 136 -175 160 -216 153z"/>
<path d="M1579 1993 c-1 -35 -1 -256 0 -264 1 -3 278 -6 615 -6 l615 0 110
143 c61 78 111 145 111 148 0 3 -326 6 -725 6 l-725 0 -1 -27z"/>
<path d="M3051 1848 c-553 -730 -974 -1283 -980 -1288 -6 -5 -41 -55 -55 -77
-6 -10 31 -13 172 -13 l179 0 154 203 c84 111 158 207 164 213 5 7 19 24 30
40 20 27 427 564 678 894 73 96 137 181 141 188 6 9 -31 12 -173 12 l-179 0
-131 -172z"/>
<path d="M1134 1599 c-3 -5 -7 -241 -5 -280 1 -15 61 -16 680 -16 l679 0 106
138 c58 76 109 144 111 151 4 11 -142 13 -781 13 -432 0 -788 -3 -790 -6z"/>
<path d="M697 1175 c-3 -9 -1 -273 2 -285 0 -3 331 -5 735 -5 l733 0 109 142
c60 78 110 146 111 150 2 5 -377 8 -842 8 -554 0 -846 -3 -848 -10z"/>
<path d="M309 715 c0 -30 0 -84 0 -120 0 -36 0 -78 0 -95 l1 -30 769 0 770 0
110 145 c61 79 111 146 111 149 0 3 -396 5 -880 5 l-880 0 -1 -54z"/>
</g>
</svg>
