<?xml version="1.0" standalone="no"?>
<!DOCTYPE svg PUBLIC "-//W3C//DTD SVG 20010904//EN"
 "http://www.w3.org/TR/2001/REC-SVG-20010904/DTD/svg10.dtd">
<svg version="1.0" xmlns="http://www.w3.org/2000/svg"
 width="223.000000pt" height="223.000000pt" viewBox="0 0 223.000000 223.000000"
 preserveAspectRatio="xMidYMid meet">
<metadata>
Created by potrace 1.11, written by Peter Selinger 2001-2013
</metadata>
<g transform="translate(0.000000,223.000000) scale(0.100000,-0.100000)"
fill="#000000" stroke="none">
<path d="M1263 2040 c-102 -45 -135 -171 -70 -267 50 -75 174 -93 245 -36 54
43 74 87 69 155 -7 124 -131 199 -244 148z"/>
<path d="M1025 1764 c-22 -15 -73 -65 -113 -113 -40 -47 -85 -100 -100 -116
-165 -183 -202 -238 -202 -300 0 -79 16 -94 265 -252 83 -52 155 -99 160 -104
9 -9 12 -90 14 -380 1 -115 13 -137 78 -146 37 -5 46 -2 73 25 l30 30 0 299
c-1 361 4 345 -120 418 -47 27 -102 60 -123 73 l-38 22 53 63 c29 34 55 64 58
67 3 3 25 29 49 58 l44 54 40 -94 c21 -51 45 -100 53 -108 20 -20 286 -23 327
-3 50 25 58 91 15 129 -16 15 -38 18 -136 19 l-117 0 -25 50 c-14 28 -39 79
-54 115 -87 197 -93 205 -158 215 -25 4 -43 -1 -73 -21z"/>
<path d="M365 1067 c-112 -19 -241 -109 -298 -209 -130 -224 -45 -514 183
-626 78 -39 95 -43 182 -47 245 -11 450 176 463 423 13 247 -186 461 -435 467
-25 0 -67 -3 -95 -8z m216 -98 c66 -24 147 -92 182 -151 110 -192 39 -426
-159 -520 -274 -129 -584 127 -507 420 20 75 55 133 111 183 54 47 115 77 175
85 23 4 43 7 45 9 9 8 104 -8 153 -26z"/>
<path d="M413 949 c-269 -35 -373 -377 -169 -557 52 -45 106 -71 168 -78 29
-3 55 -6 58 -7 3 0 23 3 45 8 104 21 188 87 233 184 35 73 36 190 3 263 -58
127 -198 205 -338 187z m57 -39 c0 -9 -4 -20 -8 -25 -13 -15 -32 -89 -32 -124
0 -24 -6 -34 -23 -40 -13 -5 -31 -21 -40 -35 -12 -17 -26 -26 -44 -26 -32 0
-104 33 -128 60 -16 18 -16 21 3 52 45 73 97 115 172 140 60 20 100 19 100 -2z
m111 -17 c9 -9 2 -23 -25 -54 -20 -24 -42 -60 -48 -81 -11 -38 -22 -45 -47
-29 -10 6 -12 19 -6 47 17 94 86 157 126 117z m106 -81 c6 -4 23 -32 37 -62
33 -71 32 -182 -2 -248 l-23 -43 -63 66 c-35 36 -71 65 -80 65 -11 0 -15 9
-14 33 1 18 -4 42 -9 52 -22 38 29 105 101 132 39 14 38 14 53 5z m-184 -134
c9 -11 17 -31 17 -45 0 -28 -41 -73 -67 -73 -25 0 -63 28 -72 54 -27 71 70
123 122 64z m-206 -56 c51 3 56 1 59 -19 3 -19 -4 -24 -45 -37 -27 -8 -58 -13
-68 -11 -10 2 -26 4 -35 4 -33 2 -54 43 -39 78 1 1 17 -3 36 -8 20 -6 61 -9
92 -7z m287 -85 c48 -46 64 -85 50 -125 -15 -43 -31 -35 -63 32 -18 36 -42 73
-56 84 -22 18 -22 20 -7 35 24 22 27 21 76 -26z m-192 22 c2 -6 19 -14 37 -18
58 -11 96 -87 80 -159 -9 -44 -10 -45 -70 -43 -56 1 -139 34 -176 69 -31 30
-73 87 -73 99 0 6 23 13 51 16 28 4 67 15 87 25 44 23 59 26 64 11z"/>
<path d="M418 684 c-35 -18 -38 -64 -7 -93 50 -47 128 25 86 80 -19 25 -49 30
-79 13z"/>
<path d="M1695 1069 c-276 -52 -435 -330 -340 -598 38 -110 145 -216 263 -262
46 -18 76 -22 157 -22 94 0 106 3 178 36 172 80 274 247 262 432 -6 84 -11
101 -45 172 -86 174 -287 277 -475 242z m165 -83 c46 -10 126 -56 164 -93 79
-78 115 -170 111 -281 -5 -134 -87 -256 -214 -316 -58 -27 -76 -31 -151 -30
-104 1 -174 29 -249 99 -46 43 -96 125 -107 177 -13 61 -5 159 17 219 42 111
162 210 272 225 23 4 43 7 45 9 4 4 81 -3 112 -9z"/>
<path d="M1735 949 c-107 -14 -199 -83 -247 -185 -60 -127 -28 -280 77 -373
62 -54 151 -87 230 -84 108 4 225 84 275 188 19 40 24 67 24 135 1 75 -2 92
-28 143 -63 124 -194 194 -331 176z m55 -33 c-1 -6 -9 -36 -20 -66 -11 -30
-19 -69 -20 -87 0 -22 -7 -36 -20 -43 -11 -6 -31 -22 -44 -35 -14 -14 -31 -25
-39 -25 -26 0 -82 23 -114 47 l-33 24 19 37 c29 57 78 102 141 131 60 27 130
36 130 17z m120 -28 c0 -5 -16 -28 -35 -51 -19 -22 -40 -58 -46 -80 -7 -28
-14 -37 -25 -33 -9 3 -20 6 -25 6 -27 0 5 106 45 146 25 25 38 31 59 27 15 -3
27 -10 27 -15z m115 -94 c50 -77 60 -190 24 -274 -12 -28 -26 -50 -30 -50 -5
0 -36 27 -68 60 -32 33 -66 60 -75 60 -11 0 -15 8 -12 30 2 16 -2 40 -9 53
-19 37 8 83 72 119 55 32 78 32 98 2z m-210 -109 c34 -33 33 -77 -1 -104 -15
-12 -34 -21 -44 -21 -33 0 -70 39 -70 74 0 43 27 67 83 75 4 0 19 -10 32 -24z
m-215 -64 c25 1 50 6 57 11 7 6 14 2 18 -13 6 -17 2 -27 -15 -41 -22 -18 -42
-21 -110 -20 -47 0 -77 40 -61 79 1 1 16 -3 34 -8 17 -5 52 -9 77 -8z m296
-73 c48 -43 76 -103 62 -134 -18 -38 -36 -37 -53 3 -8 19 -15 39 -15 42 0 4
-16 26 -36 49 -30 35 -33 44 -22 56 18 21 23 20 64 -16z m-180 7 c10 -8 28
-15 40 -15 42 0 83 -73 77 -138 -5 -61 -16 -70 -75 -65 -68 6 -125 31 -177 79
-35 31 -71 80 -71 97 0 2 23 7 51 10 28 4 67 15 87 25 47 25 45 25 68 7z"/>
<path d="M1750 688 c-47 -17 -54 -65 -15 -97 51 -40 114 13 87 73 -12 28 -39
36 -72 24z"/>
</g>
</svg>
