<?xml version="1.0" standalone="no"?>
<!DOCTYPE svg PUBLIC "-//W3C//DTD SVG 20010904//EN"
 "http://www.w3.org/TR/2001/REC-SVG-20010904/DTD/svg10.dtd">
<svg version="1.0" xmlns="http://www.w3.org/2000/svg"
 width="336.000000pt" height="336.000000pt" viewBox="0 0 336.000000 336.000000"
 preserveAspectRatio="xMidYMid meet">
<metadata>
Created by potrace 1.11, written by Peter Selinger 2001-2013
</metadata>
<g transform="translate(0.000000,336.000000) scale(0.100000,-0.100000)"
fill="#000000" stroke="none">
<path d="M1211 3313 c-7 -27 -14 -53 -16 -60 -3 -8 -29 -12 -77 -12 -40 0 -86
-3 -102 -6 -84 -17 -190 -94 -242 -177 -41 -65 -26 -67 39 -6 34 33 89 72 122
88 60 29 172 50 160 30 -3 -5 -11 -10 -17 -10 -32 0 -130 -61 -183 -115 -105
-106 -197 -322 -221 -520 -3 -22 -7 -50 -9 -62 -23 -109 -23 -503 1 -637 18
-109 32 -162 59 -228 28 -70 75 -152 82 -145 2 3 0 22 -6 43 -5 22 -12 55 -15
74 -2 19 -8 57 -12 83 -27 190 9 414 92 580 53 103 189 292 233 324 17 12 19
10 15 -24 -5 -53 -46 -130 -104 -195 -87 -98 -11 -62 87 41 76 80 115 168 122
279 1 8 27 -13 59 -45 69 -72 118 -109 197 -150 156 -81 329 -96 501 -44 l59
18 -90 0 c-86 0 -205 24 -205 41 0 4 62 7 138 7 75 1 162 3 192 7 56 5 84 -6
130 -52 62 -63 172 -240 217 -350 67 -161 100 -426 70 -562 -8 -38 -11 -68 -7
-68 19 0 107 248 126 355 3 16 9 48 14 70 24 113 34 421 17 545 -37 269 -117
441 -249 533 -23 16 -23 16 10 7 49 -13 93 -44 149 -102 61 -65 96 -124 140
-236 l33 -87 -5 58 c-18 175 -154 367 -340 479 -100 60 -203 105 -285 123
-102 24 -186 40 -260 50 -25 3 -61 10 -80 14 l-35 8 30 13 c34 14 160 17 248
6 31 -4 57 -5 57 -1 0 3 -26 17 -57 32 -56 26 -64 27 -280 31 -249 4 -271 0
-376 -63 -32 -19 -61 -35 -64 -35 -5 0 4 60 14 86 4 10 -3 14 -29 14 -32 0
-34 -3 -47 -47z"/>
<path d="M797 1411 c-7 -26 -1 -353 7 -401 63 -367 249 -693 489 -854 87 -58
219 -122 295 -141 55 -14 63 -14 128 6 82 25 238 105 314 162 153 114 282 296
363 512 28 74 72 235 81 301 3 21 10 68 15 104 12 86 9 306 -4 320 -8 7 -15
-9 -24 -53 -27 -131 -117 -259 -216 -307 -57 -28 -69 -25 -84 18 -26 74 -62
123 -114 156 -95 59 -192 74 -324 49 -64 -12 -86 -12 -156 0 -152 27 -271 3
-357 -70 -41 -36 -90 -119 -90 -155 0 -43 -103 2 -174 76 -57 59 -97 134 -116
216 -17 72 -25 89 -33 61z"/>
</g>
</svg>
