<?xml version="1.0" standalone="no"?>
<!DOCTYPE svg PUBLIC "-//W3C//DTD SVG 20010904//EN"
 "http://www.w3.org/TR/2001/REC-SVG-20010904/DTD/svg10.dtd">
<svg version="1.0" xmlns="http://www.w3.org/2000/svg"
 width="341.000000pt" height="341.000000pt" viewBox="0 0 341.000000 341.000000"
 preserveAspectRatio="xMidYMid meet">
<metadata>
Created by potrace 1.11, written by Peter Selinger 2001-2013
</metadata>
<g transform="translate(0.000000,341.000000) scale(0.100000,-0.100000)"
fill="#000000" stroke="none">
<path d="M1235 3381 c-103 -48 -162 -129 -168 -231 -4 -63 20 -205 69 -409 59
-248 65 -276 69 -343 3 -62 -15 -162 -41 -228 -16 -40 -18 -42 -32 -24 -32 43
-63 133 -78 223 -8 53 -17 107 -19 121 -2 14 -7 48 -10 75 -3 28 -7 61 -10 75
-2 14 -7 42 -10 63 -21 148 -49 236 -90 285 -51 61 -113 86 -210 85 -66 -1
-85 -7 -133 -37 -119 -75 -160 -202 -109 -336 3 -8 14 -40 25 -70 20 -55 70
-174 110 -260 100 -218 112 -288 81 -463 -33 -182 -40 -242 -40 -343 -1 -133
22 -268 61 -359 11 -26 18 -51 15 -56 -6 -8 -201 -122 -277 -162 -33 -16 -37
-23 -33 -47 18 -104 95 -280 155 -355 50 -62 123 -112 185 -125 40 -8 63 -20
90 -48 46 -47 105 -168 146 -302 17 -58 32 -106 34 -107 3 -5 440 248 443 257
2 5 24 2 50 -6 55 -18 283 -28 333 -14 19 5 45 11 59 14 14 2 36 7 50 10 22 5
42 -11 158 -124 73 -71 138 -130 144 -130 16 0 101 54 172 110 86 68 141 132
178 210 27 55 32 76 31 135 -1 79 15 118 69 175 49 53 138 122 224 176 l77 48
-142 136 c-77 75 -141 141 -141 146 0 6 9 28 19 50 61 125 80 361 45 549 -2
10 -6 36 -9 56 -3 20 -10 51 -15 69 -5 18 -8 74 -6 124 2 72 8 104 30 156 15
36 28 70 30 75 1 6 15 37 30 70 41 89 102 243 119 300 57 193 -102 357 -303
310 -76 -17 -146 -89 -165 -170 -9 -36 -37 -186 -40 -215 -3 -19 -7 -60 -11
-90 -3 -30 -7 -61 -9 -70 -1 -8 -5 -36 -9 -61 -12 -80 -16 -99 -35 -149 -19
-50 -86 -150 -101 -150 -4 0 -10 10 -13 23 -3 12 -14 54 -26 92 -32 110 -23
191 44 425 66 229 61 210 86 329 24 115 -7 217 -83 274 -62 46 -101 61 -168
62 -147 4 -257 -85 -275 -225 -9 -66 -13 -179 -16 -405 -2 -216 -12 -278 -56
-352 -14 -24 -27 -43 -28 -43 -2 0 -21 30 -41 66 -77 137 -85 195 -70 489 7
153 9 370 2 425 -16 142 -128 240 -281 246 -59 2 -79 -2 -130 -25z"/>
</g>
</svg>
