<?xml version="1.0" standalone="no"?>
<!DOCTYPE svg PUBLIC "-//W3C//DTD SVG 20010904//EN"
 "http://www.w3.org/TR/2001/REC-SVG-20010904/DTD/svg10.dtd">
<svg version="1.0" xmlns="http://www.w3.org/2000/svg"
 width="296.000000pt" height="296.000000pt" viewBox="0 0 296.000000 296.000000"
 preserveAspectRatio="xMidYMid meet">
<metadata>
Created by potrace 1.11, written by Peter Selinger 2001-2013
</metadata>
<g transform="translate(0.000000,296.000000) scale(0.100000,-0.100000)"
fill="#000000" stroke="none">
<path d="M1295 2949 c-16 -6 -41 -12 -55 -15 -55 -11 -62 21 95 -439 159 -467
160 -470 176 -470 8 0 13 9 13 20 -2 24 -12 101 -19 135 -3 14 -9 48 -14 75
-5 28 -19 93 -31 145 -12 52 -24 106 -26 120 -5 23 -72 356 -79 390 -2 8 -4
23 -4 33 -1 19 -11 20 -56 6z"/>
<path d="M1925 2706 c-17 -79 -64 -307 -71 -346 -3 -14 -7 -36 -10 -50 -3 -14
-7 -36 -10 -50 -3 -14 -15 -73 -28 -132 -21 -99 -21 -108 -5 -108 9 0 21 6 26
13 6 6 60 161 120 342 61 182 114 338 118 347 8 20 -20 35 -87 48 l-37 7 -16
-71z"/>
<path d="M1508 2632 c-21 -2 -38 -6 -38 -9 0 -3 17 -36 38 -72 l37 -66 3 37
c2 21 2 54 0 75 -3 37 -4 38 -40 35z"/>
<path d="M1770 2562 c0 -76 1 -77 18 -54 26 34 67 110 62 115 -3 2 -22 7 -42
10 l-38 6 0 -77z"/>
<path d="M2585 2503 c-117 -131 -131 -147 -200 -228 -33 -38 -63 -72 -66 -75
-3 -3 -35 -39 -70 -80 -35 -41 -74 -86 -86 -100 -26 -28 -26 -27 10 -34 28 -5
72 26 202 145 63 57 155 139 235 209 41 36 95 85 122 110 l48 45 -49 53 c-27
28 -51 52 -54 52 -3 0 -45 -44 -92 -97z"/>
<path d="M2063 2494 c-1 -41 2 -74 5 -74 4 0 24 27 44 59 l37 59 -43 15 -43
15 0 -74z"/>
<path d="M1210 2549 c-13 -6 -26 -12 -28 -14 -4 -4 67 -125 73 -125 2 0 3 34
3 75 -2 78 -4 81 -48 64z"/>
<path d="M720 2415 l-45 -45 30 -26 c29 -24 117 -103 235 -209 131 -118 171
-149 194 -151 53 -2 50 12 -11 83 -34 37 -98 111 -143 163 -151 173 -202 230
-209 230 -4 0 -27 -20 -51 -45z"/>
<path d="M1624 2381 c15 -176 19 -217 22 -231 1 -8 3 -35 3 -59 1 -24 3 -42 6
-39 7 7 12 36 19 123 4 39 8 81 11 95 2 14 6 52 10 84 3 32 8 62 10 67 8 12
-17 23 -53 24 l-34 1 6 -65z"/>
<path d="M2323 2411 c-25 -40 -62 -111 -59 -111 16 0 126 65 126 74 0 7 -13
22 -28 33 -26 19 -29 20 -39 4z"/>
<path d="M948 2397 l-28 -22 23 -15 c31 -20 105 -60 111 -60 3 0 -9 27 -27 60
-17 33 -36 60 -42 59 -5 0 -22 -10 -37 -22z"/>
<path d="M1173 2315 c-13 -9 -23 -21 -23 -27 0 -10 128 -196 175 -253 13 -16
27 -26 30 -23 10 10 -131 313 -147 316 -7 1 -23 -5 -35 -13z"/>
<path d="M2069 2263 c-17 -38 -41 -93 -54 -123 -13 -30 -30 -68 -39 -84 -15
-30 -13 -51 5 -41 5 3 39 50 76 103 37 53 79 114 95 134 l28 36 -29 21 c-16
12 -34 21 -40 21 -7 0 -26 -30 -42 -67z"/>
<path d="M739 2189 c-12 -17 -18 -34 -13 -39 22 -21 114 -68 114 -59 0 10 -70
129 -76 129 -1 0 -12 -14 -25 -31z"/>
<path d="M2517 2156 c-20 -36 -37 -67 -37 -70 0 -3 27 9 60 27 33 17 60 37 60
42 0 6 -10 23 -23 38 l-22 28 -38 -65z"/>
<path d="M825 1964 c-10 -19 -16 -36 -14 -37 2 -2 29 1 59 7 l55 11 -30 21
c-17 11 -35 23 -41 27 -5 3 -18 -10 -29 -29z"/>
<path d="M1510 1964 c-6 -14 -10 -30 -10 -35 0 -28 -49 -95 -137 -185 -99
-102 -141 -167 -180 -278 -12 -35 -28 -56 -55 -75 -20 -14 -37 -30 -38 -36 0
-5 37 -65 82 -132 62 -91 87 -121 98 -116 8 4 101 8 205 8 212 1 250 9 262 54
4 14 6 33 5 42 -2 8 9 21 22 27 29 13 41 47 28 82 -7 20 -5 28 14 43 30 23 32
76 4 102 -19 17 -19 18 2 34 24 20 27 66 7 86 -27 25 -83 35 -191 35 -132 0
-137 5 -80 93 23 34 46 75 51 90 23 60 6 158 -29 177 -31 16 -50 11 -60 -16z"/>
<path d="M589 1933 c-5 -16 -11 -33 -13 -39 -3 -7 22 -11 75 -12 43 -1 79 0
79 3 0 5 -113 75 -122 75 -5 0 -13 -12 -19 -27z"/>
<path d="M209 1906 c-6 -22 -15 -54 -20 -70 -5 -17 -6 -33 -2 -36 5 -4 46 -15
93 -24 47 -10 94 -19 105 -22 11 -2 43 -8 70 -14 28 -5 59 -11 70 -14 88 -20
187 -38 190 -34 3 3 8 22 10 44 l6 39 -256 86 -255 87 -11 -42z"/>
<path d="M516 1658 c-3 -7 -7 -25 -10 -40 l-6 -28 75 0 c41 0 75 2 75 5 0 4
-118 75 -126 75 -2 0 -6 -6 -8 -12z"/>
<path d="M507 1338 c3 -18 9 -37 13 -41 6 -7 130 59 130 69 0 2 -34 4 -75 4
l-74 0 6 -32z"/>
<path d="M656 1263 c-2 -2 -50 -13 -107 -24 -57 -11 -111 -22 -119 -24 -8 -2
-25 -4 -37 -4 -27 -1 -29 -30 -9 -96 15 -48 3 -49 199 17 144 49 147 51 143
77 -2 14 -5 34 -5 44 -1 13 -8 17 -31 15 -17 -1 -32 -4 -34 -5z"/>
<path d="M583 1045 c5 -16 13 -34 17 -38 6 -7 130 57 130 67 0 1 -35 3 -79 2
l-79 0 11 -31z"/>
<path d="M1115 970 c-16 -6 -327 -276 -345 -299 -3 -3 -48 -43 -100 -87 -146
-125 -139 -112 -81 -173 47 -47 71 -62 71 -43 0 4 17 25 38 48 38 42 75 83
177 199 33 38 101 114 150 169 163 183 160 179 139 187 -24 10 -25 9 -49 -1z"/>
<path d="M2158 973 l-28 -4 39 -42 c21 -23 114 -127 206 -232 92 -104 170
-191 174 -193 4 -1 27 18 51 43 l45 46 -50 45 c-28 25 -95 85 -150 132 -96 82
-160 141 -211 190 -13 12 -29 21 -36 21 -7 -1 -25 -4 -40 -6z"/>
<path d="M1338 937 c-23 -17 -189 -259 -185 -270 1 -4 16 -17 33 -28 l31 -19
56 122 c92 204 98 221 65 195z"/>
<path d="M1960 945 c0 -3 8 -25 19 -48 10 -23 27 -62 38 -87 11 -25 35 -78 53
-117 l33 -73 38 22 c37 20 37 22 24 47 -27 48 -180 254 -193 259 -6 2 -12 1
-12 -3z"/>
<path d="M1494 929 c-7 -11 -52 -141 -179 -511 -29 -87 -55 -167 -57 -179 -3
-19 5 -24 60 -40 47 -13 64 -15 67 -6 7 26 136 668 141 706 5 33 3 41 -10 41
-8 0 -18 -5 -22 -11z"/>
<path d="M1796 932 c-6 -10 -5 -13 19 -132 8 -41 17 -86 20 -100 3 -14 12 -59
20 -100 21 -103 24 -120 31 -155 3 -16 9 -48 14 -70 5 -22 12 -56 15 -75 5
-29 32 -161 39 -195 2 -5 6 -31 10 -57 8 -46 9 -47 40 -41 100 20 121 28 118
48 -2 11 -40 126 -83 255 -210 620 -223 654 -243 622z"/>
<path d="M1656 868 c-3 -29 -8 -80 -12 -113 -3 -33 -8 -69 -10 -80 -2 -11 -7
-52 -10 -91 l-6 -70 39 1 38 1 -1 49 c0 28 -3 84 -7 125 -14 162 -20 225 -22
228 -1 2 -5 -21 -9 -50z"/>
<path d="M773 842 c-29 -15 -53 -32 -53 -39 0 -7 11 -24 23 -39 l24 -28 36 63
c21 34 37 64 37 67 0 8 -16 3 -67 -24z"/>
<path d="M1005 638 c-22 -11 -50 -29 -63 -39 l-23 -17 31 -22 c16 -12 34 -19
39 -15 13 7 71 115 63 115 -4 -1 -25 -10 -47 -22z"/>
<path d="M2270 654 c0 -3 14 -33 31 -65 l31 -58 34 26 34 25 -23 18 c-29 23
-107 62 -107 54z"/>
<path d="M2064 473 c1 -43 3 -78 6 -77 17 2 70 24 70 29 0 10 -38 79 -58 103
-18 23 -18 23 -18 -55z"/>
<path d="M1219 496 c-45 -73 -45 -80 0 -92 l39 -11 0 74 c0 40 -3 73 -6 73 -4
0 -19 -20 -33 -44z"/>
<path d="M1506 405 c-21 -36 -37 -67 -35 -69 2 -2 20 -6 40 -9 34 -5 37 -3 40
21 2 15 2 49 -1 75 l-5 49 -39 -67z"/>
<path d="M1770 394 l0 -76 33 7 c17 4 36 10 40 15 7 6 -58 130 -68 130 -3 0
-5 -34 -5 -76z"/>
</g>
</svg>
